#!OML:ASF X:\für Bonn\!DataBase\2005_08_10_Bjorn_Final\c3d\bjorn.ASF
:FULLY-SPECIFIED
:DEGREES
85
root 0.724239 18.5976 8.05362 -1975.57 -12.8668 175.625
lowerback 40.0154 5.66984 5.67507
upperback 25.7045 -1.64453 2.19759
thorax 9.68146 -3.96116 -0.732989
lowerneck 4.56782 -7.55501 -8.44512
upperneck -0.718935 -10.3102 12.3657
head 0.141102 -5.2425 5.10156
rclavicle -7.95139e-016 1.19271e-015
rhumerus -1.13414 -21.0016 -84.9507
rradius 25.1032
rwrist 16.3477
rhand -20.1832 10.928
rfingers 7.12502
rthumb 6.16297 -18.9624
lclavicle -7.95139e-016 1.19271e-015
lhumerus 28.6315 -33.8557 51.7393
lradius 42.755
lwrist 3.28365
lhand -40.144 -4.87796
lfingers 7.12502
lthumb -13.1066 744.69
rfemur -393.803 -13.7698 368.667
rtibia 43.6728
rfoot -12.7181 -0.569384
rtoes -6.71225
lfemur -32.3948 0.108512 -17.2237
ltibia 36.563
lfoot -5.46242 7.65536
ltoes -13.4548
86
root 0.711326 18.5451 8.08759 -1975.3 -12.5282 175.343
lowerback 40.4115 5.52948 6.04709
upperback 25.7604 -1.82459 2.3259
thorax 9.66104 -4.05069 -0.733439
lowerneck 4.71326 -7.60317 -8.15116
upperneck -1.14945 -10.3235 12.3202
head -0.0244114 -5.25865 5.05932
rclavicle 1.82882e-014 -1.76918e-014
rhumerus -0.29 -21.0043 -84.8243
rradius 25.022
rwrist 15.9661
rhand -19.8524 10.9998
rfingers 7.12502
rthumb 6.48231 -18.881
lclavicle 1.82882e-014 -1.76918e-014
lhumerus 27.9171 -33.4053 52.9162
lradius 42.4926
lwrist 4.15146
lhand -39.6353 -4.36576
lfingers 7.12502
lthumb -12.6162 745.233
rfemur -394.653 -13.7354 368.472
rtibia 44.2816
rfoot -12.6743 -0.857688
rtoes -6.87852
lfemur -33.2762 0.0840402 -17.5323
ltibia 37.6267
lfoot -5.79122 7.92993
ltoes -13.2871
87
root 0.699683 18.4871 8.12131 -1975.05 -12.1962 175.045
lowerback 40.8198 5.37285 6.43415
upperback 25.7959 -2.00435 2.44946
thorax 9.61511 -4.13512 -0.742593
lowerneck 4.84789 -7.67188 -7.87143
upperneck -1.54646 -10.3665 12.2935
head -0.173701 -5.28937 5.02349
rclavicle -4.77083e-015 -4.96962e-015
rhumerus 0.49621 -21.0048 -84.6666
rradius 24.9525
rwrist 15.5784
rhand -19.5443 11.1385
rfingers 7.12502
rthumb 6.77978 -18.7329
lclavicle -4.77083e-015 -4.96962e-015
lhumerus 27.2129 -32.976 54.0835
lradius 42.1765
lwrist 4.99472
lhand -39.175 -3.96568
lfingers 7.12502
lthumb -12.1724 745.66
rfemur -395.531 -13.6761 368.246
rtibia 44.9969
rfoot -12.6284 -1.03919
rtoes -7.08046
lfemur -34.1794 0.0599745 -17.8537
ltibia 38.7448
lfoot -6.13906 8.18208
ltoes -13.057
88
root 0.687834 18.4251 8.1538 -1974.78 -11.8397 174.764
lowerback 41.1863 5.21766 6.81465
upperback 25.8156 -2.17115 2.58649
thorax 9.56443 -4.21209 -0.735742
lowerneck 4.97272 -7.75979 -7.61219
upperneck -1.91824 -10.4381 12.2181
head -0.312884 -5.33332 4.97521
rclavicle -5.40694e-014 -2.5842e-014
rhumerus 1.23084 -20.8778 -84.425
rradius 24.9084
rwrist 15.1025
rhand -19.2875 11.2336
rfingers 7.12502
rthumb 7.02767 -18.6298
lclavicle -5.40694e-014 -2.5842e-014
lhumerus 26.473 -32.5405 55.291
lradius 41.814
lwrist 5.69517
lhand -38.6819 -3.62065
lfingers 7.12502
lthumb -11.6969 746.033
rfemur -396.48 -13.5714 368.022
rtibia 45.8147
rfoot -12.5783 -1.0695
rtoes -7.35091
lfemur -35.1306 0.0197928 -18.1468
ltibia 39.9129
lfoot -6.53037 8.46755
ltoes -12.6651
89
root 0.676925 18.3587 8.18526 -1974.49 -11.4637 174.452
lowerback 41.5197 5.06641 7.16536
upperback 25.8407 -2.33668 2.68274
thorax 9.52776 -4.28522 -0.75824
lowerneck 5.00229 -7.85086 -7.1813
upperneck -2.24229 -10.5029 12.0554
head -0.437582 -5.3704 4.86922
rclavicle -2.70347e-014 5.96354e-015
rhumerus 1.97567 -20.8185 -84.2463
rradius 24.8725
rwrist 14.8027
rhand -19.0353 11.312
rfingers 7.12502
rthumb 7.2711 -18.5431
lclavicle -2.70347e-014 5.96354e-015
lhumerus 25.7776 -32.1152 56.3695
lradius 41.4374
lwrist 6.29602
lhand -38.156 -3.27742
lfingers 7.12502
lthumb -11.1897 746.404
rfemur -397.492 -13.4332 367.747
rtibia 46.7277
rfoot -12.5515 -1.00542
rtoes -7.51883
lfemur -36.1234 -0.035142 -18.4622
ltibia 41.1222
lfoot -6.92923 8.79253
ltoes -12.4817
90
root 0.666371 18.2906 8.21618 -1974.2 -11.0884 174.17
lowerback 41.8124 4.9176 7.52332
upperback 25.8629 -2.49459 2.81258
thorax 9.50286 -4.35601 -0.750734
lowerneck 4.99918 -7.93049 -6.71285
upperneck -2.56619 -10.5506 11.8215
head -0.565051 -5.39788 4.73562
rclavicle -1.59028e-015 -3.77691e-015
rhumerus 2.70544 -20.6772 -83.9997
rradius 24.8571
rwrist 14.4866
rhand -18.8328 11.3083
rfingers 7.12502
rthumb 7.46655 -18.5399
lclavicle -1.59028e-015 -3.77691e-015
lhumerus 25.1302 -31.7227 57.3948
lradius 41.0216
lwrist 6.73319
lhand -37.6237 -2.95862
lfingers 7.12502
lthumb -10.6763 746.75
rfemur -398.564 -13.3102 367.51
rtibia 47.7292
rfoot -12.53 -0.909796
rtoes -8.05376
lfemur -37.1509 -0.0458549 -18.75
ltibia 42.3697
lfoot -7.35616 9.04874
ltoes -12.1762
91
root 0.657363 18.2192 8.24661 -1973.9 -10.6857 173.906
lowerback 42.0835 4.77708 7.86788
upperback 25.868 -2.63176 2.93796
thorax 9.46361 -4.4144 -0.744676
lowerneck 4.96527 -7.99548 -6.19534
upperneck -2.85816 -10.5793 11.5424
head -0.68558 -5.41473 4.57966
rclavicle 0 2.96189e-014
rhumerus 3.41849 -20.5674 -83.7325
rradius 24.822
rwrist 14.1984
rhand -18.6682 11.3412
rfingers 7.12502
rthumb 7.62541 -18.5014
lclavicle 0 2.96189e-014
lhumerus 24.4949 -31.3887 58.3419
lradius 40.5428
lwrist 6.93296
lhand -37.0375 -2.64532
lfingers 7.12502
lthumb -10.1108 747.092
rfemur -399.697 -13.1278 367.274
rtibia 48.8072
rfoot -12.5547 -0.806401
rtoes -8.61298
lfemur -38.2219 -0.030642 -19.0175
ltibia 43.6579
lfoot -7.78563 9.32211
ltoes -12.0911
92
root 0.648897 18.1417 8.27695 -1973.59 -10.306 173.623
lowerback 42.3304 4.63707 8.19284
upperback 25.8587 -2.76243 3.0888
thorax 9.4149 -4.47215 -0.701475
lowerneck 4.96658 -8.04363 -5.8182
upperneck -3.01456 -10.617 10.9764
head -0.862047 -5.4212 4.83976
rclavicle 1.59028e-015 3.20043e-014
rhumerus 4.09866 -20.4738 -83.3924
rradius 24.7861
rwrist 13.953
rhand -18.4595 11.4453
rfingers 7.12502
rthumb 7.82685 -18.3898
lclavicle 1.59028e-015 3.20043e-014
lhumerus 23.8891 -31.1609 59.1762
lradius 40.0667
lwrist 6.9036
lhand -36.3748 -2.24294
lfingers 7.12502
lthumb -9.47144 747.524
rfemur -400.894 -12.9952 367.022
rtibia 49.9612
rfoot -12.6041 -0.734892
rtoes -9.67799
lfemur -39.3387 -0.0233695 -19.2982
ltibia 44.9974
lfoot -8.22716 9.5534
ltoes -11.8872
93
root 0.642405 18.0579 8.30471 -1973.3 -9.8883 173.395
lowerback 42.5882 4.52887 8.50104
upperback 25.8456 -2.86561 3.27542
thorax 9.36247 -4.52646 -0.617468
lowerneck 4.97713 -8.0719 -5.45397
upperneck -3.32487 -10.6094 10.7658
head -0.998743 -5.42143 4.70986
rclavicle 3.81667e-014 6.95746e-015
rhumerus 4.80628 -20.4566 -83.0337
rradius 24.7064
rwrist 13.8265
rhand -18.2571 11.5889
rfingers 7.12502
rthumb 8.02216 -18.2389
lclavicle 3.81667e-014 6.95746e-015
lhumerus 23.2776 -30.9629 59.9776
lradius 39.5636
lwrist 6.64565
lhand -35.6145 -1.95497
lfingers 7.12502
lthumb -8.73785 747.844
rfemur -402.11 -12.8245 366.812
rtibia 51.1651
rfoot -12.689 -0.597521
rtoes -10.6719
lfemur -40.4637 0.0518533 -19.525
ltibia 46.3848
lfoot -8.68456 9.78887
ltoes -11.7887
94
root 0.633342 17.9694 8.33272 -1972.98 -9.43948 173.182
lowerback 42.7377 4.40926 8.84003
upperback 25.8534 -2.97231 3.41161
thorax 9.36386 -4.56594 -0.608871
lowerneck 4.94611 -8.09603 -5.06545
upperneck -3.62506 -10.5941 10.5784
head -1.12493 -5.4179 4.58204
rclavicle -4.77083e-014 1.78906e-014
rhumerus 5.56212 -20.5473 -82.7438
rradius 24.6037
rwrist 13.7201
rhand -17.9682 11.7663
rfingers 7.12502
rthumb 8.301 -18.0506
lclavicle -4.77083e-014 1.78906e-014
lhumerus 22.7749 -30.9267 60.5153
lradius 39.0124
lwrist 6.40267
lhand -34.825 -1.89906
lfingers 7.12502
lthumb -7.9759 747.93
rfemur -403.422 -12.6595 366.615
rtibia 52.3979
rfoot -12.752 -0.391086
rtoes -11.3543
lfemur -41.668 0.144406 -19.7383
ltibia 47.8118
lfoot -9.16015 10.012
ltoes -11.6403
95
root 0.62397 17.8797 8.36181 -1972.66 -8.97984 172.984
lowerback 42.8584 4.28275 9.21551
upperback 25.8548 -3.06251 3.52745
thorax 9.36671 -4.58555 -0.644949
lowerneck 5.00924 -8.13499 -4.76396
upperneck -3.98014 -10.598 10.5216
head -1.2721 -5.4289 4.5254
rclavicle 1.74931e-014 -2.92213e-014
rhumerus 6.29528 -20.7978 -82.4795
rradius 24.4653
rwrist 13.7082
rhand -17.6568 12.0583
rfingers 7.12502
rthumb 8.60156 -17.7464
lclavicle 1.74931e-014 -2.92213e-014
lhumerus 22.2935 -31.0772 60.891
lradius 38.5154
lwrist 6.12382
lhand -33.9893 -2.00313
lfingers 7.12502
lthumb -7.16927 747.855
rfemur -404.754 -12.4607 366.409
rtibia 53.6308
rfoot -12.8116 -0.161737
rtoes -11.8302
lfemur -42.8887 0.276334 -19.9507
ltibia 49.2554
lfoot -9.63973 10.2291
ltoes -11.763
96
root 0.614061 17.7881 8.39023 -1972.35 -8.51759 172.802
lowerback 42.9973 4.13713 9.59184
upperback 25.8412 -3.1698 3.63136
thorax 9.34616 -4.61329 -0.686701
lowerneck 5.02525 -8.17396 -4.47839
upperneck -4.22723 -10.613 10.402
head -1.37705 -5.4413 4.44285
rclavicle 3.49861e-014 -2.18663e-015
rhumerus 7.01515 -20.9433 -82.1857
rradius 24.3281
rwrist 13.5839
rhand -17.3015 12.2597
rfingers 7.12502
rthumb 8.94439 -17.5307
lclavicle 3.49861e-014 -2.18663e-015
lhumerus 21.8204 -31.3644 61.1021
lradius 38.0515
lwrist 5.86366
lhand -33.0828 -2.33792
lfingers 7.12502
lthumb -6.29414 747.549
rfemur -406.061 -12.2441 366.205
rtibia 54.8483
rfoot -12.8629 0.080623
rtoes -11.9512
lfemur -44.0936 0.414065 -20.1428
ltibia 50.7054
lfoot -10.1264 10.4406
ltoes -11.7961
